<svg xmlns="http://www.w3.org/2000/svg" xmlns:cc="http://web.resource.org/cc/" xmlns:svg="http://www.w3.org/2000/svg" xmlns:xlink="http://www.w3.org/1999/xlink" id="svg2" width="744.094" height="1052.362"><defs id="defs4"><linearGradient id="linearGradient2840"><stop style="stop-color:#b3aba8;stop-opacity:1" id="stop2842" offset="0"/><stop style="stop-color:#f0f0f0;stop-opacity:1" id="stop2844" offset="1"/></linearGradient><linearGradient id="linearGradient2834"><stop id="stop2836" offset="0" style="stop-color:#f58635;stop-opacity:1"/><stop id="stop2838" offset="1" style="stop-color:#fc9;stop-opacity:1"/></linearGradient><linearGradient id="linearGradient2800"><stop style="stop-color:#fdc036;stop-opacity:1" id="stop2804" offset="0"/><stop id="stop2818" offset="1" style="stop-color:#feeda6;stop-opacity:1"/></linearGradient><radialGradient id="radialGradient2824" cx="336.513" cy="119.361" r="65.209" fx="336.513" fy="119.361" gradientTransform="matrix(1,0,0,0.983536,0,1.965221)" gradientUnits="userSpaceOnUse" xlink:href="#linearGradient2800"/><radialGradient id="radialGradient2832" cx="336.513" cy="119.361" r="69.502" fx="336.513" fy="119.361" gradientTransform="matrix(1,0,0,0.984553,0,1.84382)" gradientUnits="userSpaceOnUse" xlink:href="#linearGradient2834"/><radialGradient id="radialGradient2846" cx="336.513" cy="119.361" r="65.209" fx="336.513" fy="119.361" gradientTransform="matrix(1,0,0,0.983536,0,1.965221)" gradientUnits="userSpaceOnUse" xlink:href="#linearGradient2840"/></defs><metadata id="metadata7"/><g id="layer1"><path style="opacity:1;fill:url(#radialGradient2846);fill-opacity:1;fill-rule:nonzero;stroke:none;stroke-width:8.58703613;stroke-linecap:round;stroke-linejoin:bevel;stroke-miterlimit:4;stroke-dasharray:none;stroke-opacity:.23529412" id="path1878" d="M 368.75693,183.49666 L 330.68248,158.07313 L 288.1542,175.02497 L 300.56776,130.95772 L 271.30364,95.749324 L 317.0501,93.937794 L 341.49216,55.225971 L 357.35146,98.173639 L 401.7216,109.45681 L 365.77673,137.81146 L 368.75693,183.49666 z" transform="matrix(0.188613,-2.087073e-2,1.982393e-2,0.198573,134.0357,55.01408)"/><path style="opacity:1;fill:url(#radialGradient2824);fill-opacity:1;fill-rule:nonzero;stroke:none;stroke-width:12.78055573;stroke-linecap:round;stroke-linejoin:round;stroke-miterlimit:4;stroke-dasharray:none;stroke-opacity:.23529412" id="path1880" d="M 368.75693,183.49666 L 330.68248,158.07313 L 288.1542,175.02497 L 300.56776,130.95772 L 271.30364,95.749324 L 317.0501,93.937794 L 341.49216,55.225971 L 357.35146,98.173639 L 401.7216,109.45681 L 365.77673,137.81146 L 368.75693,183.49666 z" transform="matrix(0.188613,-2.087073e-2,1.982393e-2,0.198573,134.0357,80.06309)"/><path style="opacity:1;fill:url(#radialGradient2832);fill-opacity:1;fill-rule:nonzero;stroke:none;stroke-width:8.58703613;stroke-linecap:round;stroke-linejoin:bevel;stroke-miterlimit:4;stroke-dasharray:none;stroke-opacity:.23529412" id="path1882" d="M 368.75693,183.49666 L 330.68248,158.07313 L 288.1542,175.02497 L 300.56776,130.95772 L 271.30364,95.749324 L 317.0501,93.937794 L 341.49216,55.225971 L 357.35146,98.173639 L 401.7216,109.45681 L 365.77673,137.81146 L 368.75693,183.49666 z" transform="matrix(0.188613,-2.087073e-2,1.982393e-2,0.198573,134.0357,105.1121)"/><path style="opacity:1;fill:red;fill-opacity:1;fill-rule:nonzero;stroke:none;stroke-width:8.58703613;stroke-linecap:round;stroke-linejoin:bevel;stroke-miterlimit:4;stroke-dasharray:none;stroke-opacity:.23529412" id="path2848" d="M 368.75693,183.49666 L 330.68248,158.07313 L 288.1542,175.02497 L 300.56776,130.95772 L 271.30364,95.749324 L 317.0501,93.937794 L 341.49216,55.225971 L 357.35146,98.173639 L 401.7216,109.45681 L 365.77673,137.81146 L 368.75693,183.49666 z" transform="matrix(0.188613,-2.087073e-2,1.982393e-2,0.198573,172.7096,54.82191)"/><path style="opacity:1;fill:#c8c8c8;fill-opacity:1;fill-rule:nonzero;stroke:none;stroke-width:8.58703613;stroke-linecap:round;stroke-linejoin:bevel;stroke-miterlimit:4;stroke-dasharray:none;stroke-opacity:.23529412" id="path2852" d="M 368.75693,183.49666 L 330.68248,158.07313 L 288.1542,175.02497 L 300.56776,130.95772 L 271.30364,95.749324 L 317.0501,93.937794 L 341.49216,55.225971 L 357.35146,98.173639 L 401.7216,109.45681 L 365.77673,137.81146 L 368.75693,183.49666 z" transform="matrix(7.52523e-2,-8.326947e-3,7.909298e-3,7.922612e-2,252.7687,67.25321)"/><path style="opacity:1;fill:#fdc036;fill-opacity:1;fill-rule:nonzero;stroke:none;stroke-width:12.78055573;stroke-linecap:round;stroke-linejoin:round;stroke-miterlimit:4;stroke-dasharray:none;stroke-opacity:.23529412" id="path2854" d="M 368.75693,183.49666 L 330.68248,158.07313 L 288.1542,175.02497 L 300.56776,130.95772 L 271.30364,95.749324 L 317.0501,93.937794 L 341.49216,55.225971 L 357.35146,98.173639 L 401.7216,109.45681 L 365.77673,137.81146 L 368.75693,183.49666 z" transform="matrix(7.52523e-2,-8.326947e-3,7.909298e-3,7.922612e-2,252.7687,77.24721)"/><path style="opacity:1;fill:#f56335;fill-opacity:1;fill-rule:nonzero;stroke:none;stroke-width:8.58703613;stroke-linecap:round;stroke-linejoin:bevel;stroke-miterlimit:4;stroke-dasharray:none;stroke-opacity:.23529412" id="path2856" d="M 368.75693,183.49666 L 330.68248,158.07313 L 288.1542,175.02497 L 300.56776,130.95772 L 271.30364,95.749324 L 317.0501,93.937794 L 341.49216,55.225971 L 357.35146,98.173639 L 401.7216,109.45681 L 365.77673,137.81146 L 368.75693,183.49666 z" transform="matrix(7.52523e-2,-8.326947e-3,7.909298e-3,7.922612e-2,252.7687,87.24111)"/><path style="opacity:1;fill:red;fill-opacity:1;fill-rule:nonzero;stroke:none;stroke-width:8.58703613;stroke-linecap:round;stroke-linejoin:bevel;stroke-miterlimit:4;stroke-dasharray:none;stroke-opacity:.23529412" id="path2858" d="M 368.75693,183.49666 L 330.68248,158.07313 L 288.1542,175.02497 L 300.56776,130.95772 L 271.30364,95.749324 L 317.0501,93.937794 L 341.49216,55.225971 L 357.35146,98.173639 L 401.7216,109.45681 L 365.77673,137.81146 L 368.75693,183.49666 z" transform="matrix(7.52523e-2,-8.326947e-3,7.909298e-3,7.922612e-2,268.1987,67.17651)"/></g></svg>